<svg width="96" height="32" viewBox="0 0 96 32" fill="none" xmlns="http://www.w3.org/2000/svg">
<path d="M0 7.5C0 5.17029 0 4.00544 0.380602 3.08658C0.888072 1.86144 1.86144 0.888072 3.08658 0.380602C4.00544 0 5.17029 0 7.5 0H88.5C90.8297 0 91.9946 0 92.9134 0.380602C94.1386 0.888072 95.1119 1.86144 95.6194 3.08658C96 4.00544 96 5.17029 96 7.5V24.5C96 26.8297 96 27.9946 95.6194 28.9134C95.1119 30.1386 94.1386 31.1119 92.9134 31.6194C91.9946 32 90.8297 32 88.5 32H7.5C5.17029 32 4.00544 32 3.08658 31.6194C1.86144 31.1119 0.888072 30.1386 0.380602 28.9134C0 27.9946 0 26.8297 0 24.5V7.5Z" fill="#0C0D10"/>
<path d="M65.2207 15.3608V17.1936H64.0719V18.3956H65.2207V22.4795C65.2207 23.8741 65.8516 24.4319 67.4387 24.4319C67.7176 24.4319 67.9832 24.3987 68.2156 24.3588V23.1702C68.0164 23.1901 67.8903 23.2034 67.6711 23.2034C66.9606 23.2034 66.6485 22.8713 66.6485 22.1143V18.3956H68.2156V17.1936H66.6485V15.3608H65.2207Z" fill="white"/>
<path d="M72.2587 24.5315C74.3704 24.5315 75.6654 23.117 75.6654 20.7729C75.6654 18.442 74.3638 17.0209 72.2587 17.0209C70.147 17.0209 68.8454 18.442 68.8454 20.7729C68.8454 23.117 70.1404 24.5315 72.2587 24.5315ZM72.2587 23.2631C71.0169 23.2631 70.3197 22.3534 70.3197 20.7729C70.3197 19.2057 71.0169 18.2893 72.2587 18.2893C73.4939 18.2893 74.1978 19.2057 74.1978 20.7729C74.1978 22.3467 73.4939 23.2631 72.2587 23.2631Z" fill="white"/>
<path d="M76.7733 24.392H78.201V20.1221C78.201 19.1061 78.9647 18.4221 80.0471 18.4221C80.2994 18.4221 80.7245 18.4686 80.844 18.5084V17.1006C80.6912 17.0608 80.419 17.0409 80.2065 17.0409C79.2635 17.0409 78.46 17.5588 78.2541 18.2694H78.1479V17.1604H76.7733V24.392Z" fill="white"/>
<path d="M84.389 18.2362C85.4449 18.2362 86.1355 18.9733 86.1687 20.1088H82.5164C82.596 18.9799 83.3332 18.2362 84.389 18.2362ZM86.1621 22.4397C85.8964 23.0041 85.3054 23.3163 84.4421 23.3163C83.3 23.3163 82.5628 22.5127 82.5164 21.2444V21.1647H87.623V20.6666C87.623 18.3956 86.4078 17.0209 84.3957 17.0209C82.357 17.0209 81.0621 18.4885 81.0621 20.7995C81.0621 23.1104 82.3304 24.5315 84.4023 24.5315C86.0558 24.5315 87.2113 23.7346 87.5367 22.4397H86.1621Z" fill="white"/>
<path d="M55.8578 21.7215C55.968 23.4973 57.4478 24.6329 59.6503 24.6329C62.0042 24.6329 63.4771 23.4422 63.4771 21.5426C63.4771 20.049 62.6374 19.223 60.6001 18.7481L59.5057 18.4797C58.2118 18.1769 57.6887 17.7708 57.6887 17.0618C57.6887 16.1671 58.5009 15.582 59.7191 15.582C60.8754 15.582 61.6738 16.1533 61.8184 17.0687H63.3188C63.2293 15.3962 61.7564 14.2192 59.7398 14.2192C57.5717 14.2192 56.1263 15.3962 56.1263 17.1651C56.1263 18.6242 56.9453 19.4915 58.7417 19.9113L60.022 20.2211C61.3366 20.5308 61.9147 20.985 61.9147 21.7422C61.9147 22.6232 61.0062 23.2633 59.7673 23.2633C58.4389 23.2633 57.5166 22.6644 57.3858 21.7215H55.8578Z" fill="white"/>
<path d="M41.068 17.0409C40.0852 17.0409 39.2352 17.5323 38.7969 18.3557H38.6906V17.1604H37.316V26.7959H38.7438V23.2963H38.8567C39.2352 24.06 40.052 24.5116 41.0813 24.5116C42.9074 24.5116 44.0695 23.0706 44.0695 20.7729C44.0695 18.4752 42.9074 17.0409 41.068 17.0409ZM40.6629 23.2299C39.4676 23.2299 38.7172 22.287 38.7172 20.7795C38.7172 19.2655 39.4676 18.3225 40.6695 18.3225C41.8781 18.3225 42.602 19.2456 42.602 20.7729C42.602 22.3069 41.8781 23.2299 40.6629 23.2299Z" fill="white"/>
<path d="M49.0654 17.0409C48.0826 17.0409 47.2326 17.5323 46.7943 18.3557H46.6881V17.1604H45.3135V26.7959H46.7412V23.2963H46.8541C47.2326 24.06 48.0494 24.5116 49.0787 24.5116C50.9049 24.5116 52.067 23.0706 52.067 20.7729C52.067 18.4752 50.9049 17.0409 49.0654 17.0409ZM48.6603 23.2299C47.465 23.2299 46.7146 22.287 46.7146 20.7795C46.7146 19.2655 47.465 18.3225 48.667 18.3225C49.8756 18.3225 50.5994 19.2456 50.5994 20.7729C50.5994 22.3069 49.8756 23.2299 48.6603 23.2299Z" fill="white"/>
<path d="M34.7544 24.392H36.3925L32.8066 14.4601H31.1478L27.5619 24.392H29.1449L30.0604 21.7559H33.8459L34.7544 24.392ZM31.8981 16.2634H32.0151L33.4536 20.4619H30.4527L31.8981 16.2634Z" fill="white"/>
<path d="M28.5209 6.96877V11.76H30.2508C31.6785 11.76 32.5052 10.8801 32.5052 9.34944C32.5052 7.84202 31.6719 6.96877 30.2508 6.96877H28.5209ZM29.2646 7.64612H30.1677C31.1605 7.64612 31.7482 8.27698 31.7482 9.3594C31.7482 10.4584 31.1705 11.0826 30.1677 11.0826H29.2646V7.64612Z" fill="white"/>
<path d="M35.0373 11.8297C36.0932 11.8297 36.7406 11.1225 36.7406 9.95041C36.7406 8.78499 36.0899 8.07444 35.0373 8.07444C33.9815 8.07444 33.3307 8.78499 33.3307 9.95041C33.3307 11.1225 33.9781 11.8297 35.0373 11.8297ZM35.0373 11.1955C34.4164 11.1955 34.0678 10.7406 34.0678 9.95041C34.0678 9.16682 34.4164 8.70862 35.0373 8.70862C35.6549 8.70862 36.0068 9.16682 36.0068 9.95041C36.0068 10.7373 35.6549 11.1955 35.0373 11.1955Z" fill="white"/>
<path d="M42.2543 8.14416H41.5405L40.8963 10.9033H40.8399L40.0961 8.14416H39.4122L38.6684 10.9033H38.6153L37.9678 8.14416H37.244L38.2401 11.76H38.9739L39.7176 9.09709H39.7741L40.5211 11.76H41.2616L42.2543 8.14416Z" fill="white"/>
<path d="M43.0765 11.76H43.7903V9.64495C43.7903 9.08049 44.1257 8.72854 44.6536 8.72854C45.1815 8.72854 45.4339 9.01741 45.4339 9.59846V11.76H46.1477V9.41916C46.1477 8.5592 45.7028 8.07444 44.896 8.07444C44.3515 8.07444 43.9929 8.31682 43.8169 8.71858H43.7638V8.14416H43.0765V11.76Z" fill="white"/>
<path d="M47.272 11.76H47.9859V6.73303H47.272V11.76Z" fill="white"/>
<path d="M50.6707 11.8297C51.7265 11.8297 52.374 11.1225 52.374 9.95041C52.374 8.78499 51.7232 8.07444 50.6707 8.07444C49.6148 8.07444 48.964 8.78499 48.964 9.95041C48.964 11.1225 49.6115 11.8297 50.6707 11.8297ZM50.6707 11.1955C50.0498 11.1955 49.7011 10.7406 49.7011 9.95041C49.7011 9.16682 50.0498 8.70862 50.6707 8.70862C51.2883 8.70862 51.6402 9.16682 51.6402 9.95041C51.6402 10.7373 51.2883 11.1955 50.6707 11.1955Z" fill="white"/>
<path d="M54.501 11.2188C54.1125 11.2188 53.8303 11.0295 53.8303 10.7041C53.8303 10.3854 54.0561 10.216 54.5541 10.1828L55.4373 10.1264V10.4285C55.4373 10.8768 55.0389 11.2188 54.501 11.2188ZM54.3184 11.8198C54.7932 11.8198 55.1883 11.6139 55.4041 11.252H55.4606V11.76H56.1479V9.28967C56.1479 8.526 55.6365 8.07444 54.7301 8.07444C53.91 8.07444 53.3256 8.47288 53.2526 9.09377H53.9432C54.0229 8.83811 54.2984 8.69202 54.6969 8.69202C55.185 8.69202 55.4373 8.90784 55.4373 9.28967V9.60178L54.4578 9.65823C53.5979 9.71135 53.1131 10.0865 53.1131 10.7373C53.1131 11.3981 53.6211 11.8198 54.3184 11.8198Z" fill="white"/>
<path d="M58.5704 11.8198C59.0684 11.8198 59.4901 11.584 59.7059 11.1889H59.7624V11.76H60.4463V6.73303H59.7325V8.71858H59.6793C59.4834 8.32014 59.0651 8.0844 58.5704 8.0844C57.6573 8.0844 57.0696 8.80823 57.0696 9.95041C57.0696 11.0959 57.6506 11.8198 58.5704 11.8198ZM58.7729 8.72522C59.3706 8.72522 59.7458 9.20002 59.7458 9.95374C59.7458 10.7108 59.3739 11.1789 58.7729 11.1789C58.1686 11.1789 57.8067 10.7174 57.8067 9.95041C57.8067 9.19006 58.1719 8.72522 58.7729 8.72522Z" fill="white"/>
<path d="M65.0755 11.8297C66.1314 11.8297 66.7788 11.1225 66.7788 9.95041C66.7788 8.78499 66.1281 8.07444 65.0755 8.07444C64.0197 8.07444 63.3689 8.78499 63.3689 9.95041C63.3689 11.1225 64.0163 11.8297 65.0755 11.8297ZM65.0755 11.1955C64.4546 11.1955 64.106 10.7406 64.106 9.95041C64.106 9.16682 64.4546 8.70862 65.0755 8.70862C65.6931 8.70862 66.0451 9.16682 66.0451 9.95041C66.0451 10.7373 65.6931 11.1955 65.0755 11.1955Z" fill="white"/>
<path d="M67.7238 11.76H68.4377V9.64495C68.4377 9.08049 68.773 8.72854 69.3009 8.72854C69.8289 8.72854 70.0812 9.01741 70.0812 9.59846V11.76H70.7951V9.41916C70.7951 8.5592 70.3502 8.07444 69.5433 8.07444C68.9988 8.07444 68.6402 8.31682 68.4642 8.71858H68.4111V8.14416H67.7238V11.76Z" fill="white"/>
<path d="M74.0829 7.24436V8.16077H73.5084V8.76174H74.0829V10.8037C74.0829 11.501 74.3983 11.7799 75.1918 11.7799C75.3313 11.7799 75.4641 11.7633 75.5803 11.7434V11.149C75.4807 11.159 75.4176 11.1656 75.3081 11.1656C74.9528 11.1656 74.7967 10.9996 74.7967 10.6211V8.76174H75.5803V8.16077H74.7967V7.24436H74.0829Z" fill="white"/>
<path d="M76.5386 11.76H77.2524V9.64827C77.2524 9.10041 77.5778 8.73186 78.1622 8.73186C78.6669 8.73186 78.9358 9.02405 78.9358 9.60178V11.76H79.6497V9.42581C79.6497 8.56584 79.1749 8.07776 78.4046 8.07776C77.8601 8.07776 77.4782 8.32014 77.3022 8.72522H77.2458V6.73303H76.5386V11.76Z" fill="white"/>
<path d="M82.2249 8.68206C82.7529 8.68206 83.0982 9.05061 83.1148 9.61838H81.2886C81.3284 9.05393 81.697 8.68206 82.2249 8.68206ZM83.1115 10.7838C82.9786 11.066 82.6831 11.2221 82.2515 11.2221C81.6804 11.2221 81.3118 10.8203 81.2886 10.1862V10.1463H83.8419V9.89729C83.8419 8.76174 83.2343 8.07444 82.2282 8.07444C81.2089 8.07444 80.5615 8.80823 80.5615 9.9637C80.5615 11.1192 81.1956 11.8297 82.2316 11.8297C83.0583 11.8297 83.6361 11.4313 83.7988 10.7838H83.1115Z" fill="white"/>
<path d="M19.8151 16.2406C19.8325 14.8958 20.5547 13.6233 21.7004 12.919C20.9776 11.8867 19.767 11.2322 18.5075 11.1928C17.1641 11.0518 15.8617 11.9967 15.1771 11.9967C14.4793 11.9967 13.4253 11.2068 12.2903 11.2302C10.8109 11.278 9.43177 12.1191 8.71201 13.4125C7.16481 16.0912 8.31888 20.028 9.80097 22.1933C10.5425 23.2536 11.4091 24.438 12.5431 24.396C13.6527 24.3499 14.0672 23.6884 15.4066 23.6884C16.7336 23.6884 17.1224 24.396 18.2794 24.3693C19.4701 24.3499 20.2203 23.3043 20.9358 22.234C21.4686 21.4785 21.8786 20.6435 22.1505 19.7599C20.7512 19.1681 19.8168 17.7599 19.8151 16.2406Z" fill="white"/>
<path d="M17.6298 9.76881C18.279 8.98945 18.5989 7.9877 18.5214 6.97632C17.5296 7.08049 16.6134 7.55454 15.9554 8.30401C15.3119 9.03627 14.9771 10.0204 15.0404 10.9931C16.0326 11.0033 17.0081 10.5421 17.6298 9.76881Z" fill="white"/>
<path d="M3.08658 31.6194L2.7039 32.5433L3.08658 31.6194ZM0.380602 28.9134L1.30448 28.5307L0.380602 28.9134ZM95.6194 28.9134L96.5433 29.2961L95.6194 28.9134ZM92.9134 31.6194L93.2961 32.5433L92.9134 31.6194ZM92.9134 0.380602L93.2961 -0.543277L92.9134 0.380602ZM95.6194 3.08658L94.6955 3.46927L95.6194 3.08658ZM7.5 1H88.5V-1H7.5V1ZM95 7.5V24.5H97V7.5H95ZM88.5 31H7.5V33H88.5V31ZM1 24.5V7.5H-1V24.5H1ZM7.5 31C6.32146 31 5.48764 30.9995 4.83229 30.9547C4.18592 30.9106 3.78654 30.8269 3.46927 30.6955L2.7039 32.5433C3.30548 32.7925 3.94795 32.8991 4.69615 32.9501C5.43537 33.0005 6.34883 33 7.5 33V31ZM-1 24.5C-1 25.6512 -1.00054 26.5646 -0.950105 27.3039C-0.899056 28.052 -0.792462 28.6945 -0.543277 29.2961L1.30448 28.5307C1.17306 28.2135 1.08936 27.8141 1.04526 27.1677C1.00054 26.5124 1 25.6785 1 24.5H-1ZM3.46927 30.6955C2.48915 30.2895 1.71046 29.5108 1.30448 28.5307L-0.543277 29.2961C0.0656865 30.7663 1.23373 31.9343 2.7039 32.5433L3.46927 30.6955ZM95 24.5C95 25.6785 94.9995 26.5124 94.9547 27.1677C94.9106 27.8141 94.8269 28.2135 94.6955 28.5307L96.5433 29.2961C96.7925 28.6945 96.8991 28.052 96.9501 27.3039C97.0005 26.5646 97 25.6512 97 24.5H95ZM88.5 33C89.6512 33 90.5646 33.0005 91.3038 32.9501C92.052 32.8991 92.6945 32.7925 93.2961 32.5433L92.5307 30.6955C92.2135 30.8269 91.8141 30.9106 91.1677 30.9547C90.5124 30.9995 89.6785 31 88.5 31V33ZM94.6955 28.5307C94.2895 29.5108 93.5108 30.2895 92.5307 30.6955L93.2961 32.5433C94.7663 31.9343 95.9343 30.7663 96.5433 29.2961L94.6955 28.5307ZM88.5 1C89.6785 1 90.5124 1.00054 91.1677 1.04526C91.8141 1.08936 92.2135 1.17306 92.5307 1.30448L93.2961 -0.543277C92.6945 -0.792462 92.052 -0.899056 91.3038 -0.950105C90.5646 -1.00054 89.6512 -1 88.5 -1V1ZM97 7.5C97 6.34883 97.0005 5.43537 96.9501 4.69615C96.8991 3.94795 96.7925 3.30548 96.5433 2.7039L94.6955 3.46927C94.8269 3.78654 94.9106 4.18592 94.9547 4.83229C94.9995 5.48764 95 6.32146 95 7.5H97ZM92.5307 1.30448C93.5108 1.71046 94.2895 2.48915 94.6955 3.46927L96.5433 2.7039C95.9343 1.23373 94.7663 0.0656865 93.2961 -0.543277L92.5307 1.30448ZM7.5 -1C6.34883 -1 5.43537 -1.00054 4.69615 -0.950105C3.94795 -0.899056 3.30548 -0.792462 2.7039 -0.543277L3.46927 1.30448C3.78654 1.17306 4.18592 1.08936 4.83229 1.04526C5.48764 1.00054 6.32146 1 7.5 1V-1ZM1 7.5C1 6.32146 1.00054 5.48764 1.04526 4.83229C1.08936 4.18592 1.17306 3.78654 1.30448 3.46927L-0.543277 2.7039C-0.792462 3.30548 -0.899056 3.94795 -0.950105 4.69615C-1.00054 5.43537 -1 6.34883 -1 7.5H1ZM2.7039 -0.543277C1.23373 0.0656865 0.0656865 1.23373 -0.543277 2.7039L1.30448 3.46927C1.71046 2.48915 2.48915 1.71046 3.46927 1.30448L2.7039 -0.543277Z" fill="#A6A6A6"/>
</svg>
