<svg width="108" height="32" viewBox="0 0 108 32" fill="none" xmlns="http://www.w3.org/2000/svg">
<path d="M0 5C0 2.23858 2.23858 0 5 0H103C105.761 0 108 2.23858 108 5V27C108 29.7614 105.761 32 103 32H5C2.23858 32 0 29.7614 0 27V5Z" fill="black"/>
<path d="M54.5088 17.4009C52.6272 17.4009 51.0936 18.8321 51.0936 20.8033C51.0936 22.7625 52.6272 24.2057 54.5088 24.2057C56.3912 24.2057 57.9248 22.7625 57.9248 20.8033C57.924 18.8321 56.3904 17.4009 54.5088 17.4009ZM54.5088 22.8665C53.4776 22.8665 52.5888 22.0161 52.5888 20.8041C52.5888 19.5793 53.4784 18.7417 54.5088 18.7417C55.54 18.7417 56.4288 19.5793 56.4288 20.8041C56.4288 22.0153 55.54 22.8665 54.5088 22.8665ZM47.0576 17.4009C45.176 17.4009 43.6424 18.8321 43.6424 20.8033C43.6424 22.7625 45.176 24.2057 47.0576 24.2057C48.94 24.2057 50.4736 22.7625 50.4736 20.8033C50.4736 18.8321 48.94 17.4009 47.0576 17.4009ZM47.0576 22.8665C46.0264 22.8665 45.1376 22.0161 45.1376 20.8041C45.1376 19.5793 46.0272 18.7417 47.0576 18.7417C48.0888 18.7417 48.9776 19.5793 48.9776 20.8041C48.9784 22.0153 48.0888 22.8665 47.0576 22.8665ZM38.1952 18.4457V19.8889H41.6496C41.5464 20.7009 41.276 21.2937 40.8632 21.7057C40.3608 22.2081 39.5744 22.7625 38.1952 22.7625C36.0688 22.7625 34.4064 21.0481 34.4064 18.9217C34.4064 16.7953 36.0688 15.0809 38.1952 15.0809C39.3424 15.0809 40.18 15.5321 40.7984 16.1121L41.8168 15.0937C40.9528 14.2689 39.8064 13.6377 38.1952 13.6377C35.2824 13.6377 32.8336 16.0089 32.8336 18.9217C32.8336 21.8345 35.2824 24.2057 38.1952 24.2057C39.7672 24.2057 40.9536 23.6897 41.8808 22.7233C42.8344 21.7697 43.1312 20.4289 43.1312 19.3465C43.1312 19.0121 43.1056 18.7025 43.0536 18.4449H38.1952V18.4457ZM74.4416 19.5665C74.1584 18.8065 73.2944 17.4009 71.5288 17.4009C69.776 17.4009 68.3192 18.7801 68.3192 20.8033C68.3192 22.7105 69.7632 24.2057 71.696 24.2057C73.2552 24.2057 74.1576 23.2521 74.532 22.6977L73.372 21.9241C72.9856 22.4913 72.4568 22.8649 71.696 22.8649C70.936 22.8649 70.3944 22.5169 70.0464 21.8337L74.596 19.9521L74.4416 19.5665ZM69.8016 20.7009C69.7632 19.3857 70.82 18.7161 71.5808 18.7161C72.1736 18.7161 72.676 19.0129 72.844 19.4377L69.8016 20.7009ZM66.1032 24.0001H67.5976V13.9993H66.1032V24.0001ZM63.6536 18.1617H63.6024C63.2672 17.7617 62.6224 17.4009 61.8112 17.4009C60.1096 17.4009 58.5504 18.8961 58.5504 20.8169C58.5504 22.7241 60.1096 24.2065 61.8112 24.2065C62.6232 24.2065 63.2672 23.8457 63.6024 23.4337H63.6536V23.9233C63.6536 25.2249 62.9576 25.9209 61.8368 25.9209C60.9216 25.9209 60.3544 25.2641 60.1224 24.7097L58.8208 25.2513C59.1944 26.1529 60.1864 27.2617 61.8368 27.2617C63.5896 27.2617 65.072 26.2305 65.072 23.7169V17.6081H63.6544V18.1617H63.6536ZM61.94 22.8665C60.9088 22.8665 60.0456 22.0025 60.0456 20.8169C60.0456 19.6177 60.9088 18.7417 61.94 18.7417C62.9576 18.7417 63.7568 19.6177 63.7568 20.8169C63.7568 22.0025 62.9576 22.8665 61.94 22.8665ZM81.4448 13.9993H77.868V24.0001H79.36V20.2113H81.444C83.0984 20.2113 84.7256 19.0137 84.7256 17.1057C84.7256 15.1977 83.0992 13.9993 81.4448 13.9993ZM81.4832 18.8193H79.36V15.3913H81.4832C82.5992 15.3913 83.2328 16.3153 83.2328 17.1057C83.2328 17.8801 82.5992 18.8193 81.4832 18.8193ZM90.7088 17.3833C89.628 17.3833 88.5088 17.8593 88.0456 18.9145L89.3704 19.4673C89.6536 18.9145 90.1816 18.7337 90.7344 18.7337C91.5064 18.7337 92.2912 19.1969 92.304 20.0201V20.1233C92.0336 19.9689 91.4544 19.7377 90.7472 19.7377C89.3192 19.7377 87.8648 20.5225 87.8648 21.9889C87.8648 23.3273 89.036 24.1889 90.348 24.1889C91.3512 24.1889 91.9048 23.7385 92.252 23.2105H92.3032V23.9825H93.7448V20.1481C93.7456 18.3737 92.4192 17.3833 90.7088 17.3833ZM90.528 22.8641C90.04 22.8641 89.3576 22.6193 89.3576 22.0145C89.3576 21.2425 90.2072 20.9465 90.9408 20.9465C91.596 20.9465 91.9056 21.0881 92.304 21.2809C92.188 22.2081 91.3904 22.8641 90.528 22.8641ZM98.9944 17.6017L97.2832 21.9377H97.232L95.456 17.6017H93.848L96.5112 23.6617L94.9928 27.0329H96.5496L100.654 17.6017H98.9944ZM85.5496 24.0001H87.0416V13.9993H85.5496V24.0001Z" fill="white"/>
<path d="M37.9345 8.19431C37.9345 8.86471 37.7361 9.39831 37.3385 9.79671C36.8873 10.2703 36.2985 10.5071 35.5753 10.5071C34.8825 10.5071 34.2929 10.2671 33.8089 9.78711C33.3241 9.3063 33.0817 8.71111 33.0817 8.00071C33.0817 7.28951 33.3241 6.69431 33.8089 6.21431C34.2929 5.73351 34.8825 5.49351 35.5753 5.49351C35.9193 5.49351 36.2481 5.56071 36.5601 5.69431C36.8729 5.82871 37.1233 6.00711 37.3105 6.23031L36.8889 6.65271C36.5713 6.27271 36.1337 6.08311 35.5745 6.08311C35.0689 6.08311 34.6321 6.26071 34.2633 6.61591C33.8945 6.97111 33.7105 7.43271 33.7105 7.99991C33.7105 8.56711 33.8945 9.02871 34.2633 9.38391C34.6321 9.73911 35.0689 9.91671 35.5745 9.91671C36.1105 9.91671 36.5577 9.73831 36.9153 9.38071C37.1473 9.14791 37.2817 8.82391 37.3177 8.40871H35.5745V7.83191H37.9001C37.9241 7.95751 37.9345 8.07831 37.9345 8.19431Z" fill="white"/>
<path d="M41.6225 6.18955H39.4369V7.71115H41.4081V8.28795H39.4369V9.80955H41.6225V10.4H38.8201V5.59995H41.6225V6.18955Z" fill="white"/>
<path d="M44.2232 10.4H43.6065V6.18955H42.2656V5.59995H45.564V6.18955H44.2232V10.4Z" fill="white"/>
<path d="M47.9504 10.4V5.59995H48.5672V10.4H47.9504Z" fill="white"/>
<path d="M51.3025 10.4H50.6857V6.18955H49.3449V5.59995H52.6433V6.18955H51.3025V10.4Z" fill="white"/>
<path d="M58.8872 9.77994C58.4152 10.2647 57.8288 10.5071 57.1272 10.5071C56.4256 10.5071 55.8392 10.2647 55.368 9.77994C54.896 9.29514 54.6608 8.70154 54.6608 7.99994C54.6608 7.29834 54.896 6.70474 55.368 6.21994C55.8392 5.73514 56.4256 5.49194 57.1272 5.49194C57.8248 5.49194 58.4104 5.73594 58.884 6.22314C59.3576 6.71034 59.5944 7.30234 59.5944 7.99994C59.5944 8.70154 59.3584 9.29514 58.8872 9.77994ZM55.8232 9.37754C56.1784 9.73754 56.6128 9.91674 57.1272 9.91674C57.6416 9.91674 58.0768 9.73674 58.4312 9.37754C58.7864 9.01754 58.9648 8.55834 58.9648 7.99994C58.9648 7.44154 58.7864 6.98234 58.4312 6.62234C58.0768 6.26234 57.6416 6.08314 57.1272 6.08314C56.6128 6.08314 56.1784 6.26314 55.8232 6.62234C55.4688 6.98234 55.2904 7.44154 55.2904 7.99994C55.2904 8.55834 55.4688 9.01754 55.8232 9.37754Z" fill="white"/>
<path d="M60.46 10.4V5.59995H61.2104L63.5432 9.33355H63.5696L63.5432 8.40875V5.59995H64.16V10.4H63.516L61.0752 6.48475H61.0488L61.0752 7.40955V10.4H60.46Z" fill="white"/>
<path d="M37.9345 8.19431C37.9345 8.86471 37.7361 9.39831 37.3385 9.79671C36.8873 10.2703 36.2985 10.5071 35.5753 10.5071C34.8825 10.5071 34.2929 10.2671 33.8089 9.78711C33.3241 9.3063 33.0817 8.71111 33.0817 8.00071C33.0817 7.28951 33.3241 6.69431 33.8089 6.21431C34.2929 5.73351 34.8825 5.49351 35.5753 5.49351C35.9193 5.49351 36.2481 5.56071 36.5601 5.69431C36.8729 5.82871 37.1233 6.00711 37.3105 6.23031L36.8889 6.65271C36.5713 6.27271 36.1337 6.08311 35.5745 6.08311C35.0689 6.08311 34.6321 6.26071 34.2633 6.61591C33.8945 6.97111 33.7105 7.43271 33.7105 7.99991C33.7105 8.56711 33.8945 9.02871 34.2633 9.38391C34.6321 9.73911 35.0689 9.91671 35.5745 9.91671C36.1105 9.91671 36.5577 9.73831 36.9153 9.38071C37.1473 9.14791 37.2817 8.82391 37.3177 8.40871H35.5745V7.83191H37.9001C37.9241 7.95751 37.9345 8.07831 37.9345 8.19431Z" stroke="white" stroke-width="0.2" stroke-miterlimit="10"/>
<path d="M41.6225 6.18955H39.4369V7.71115H41.4081V8.28795H39.4369V9.80955H41.6225V10.4H38.8201V5.59995H41.6225V6.18955Z" stroke="white" stroke-width="0.2" stroke-miterlimit="10"/>
<path d="M44.2232 10.4H43.6065V6.18955H42.2656V5.59995H45.564V6.18955H44.2232V10.4Z" stroke="white" stroke-width="0.2" stroke-miterlimit="10"/>
<path d="M47.9504 10.4V5.59995H48.5672V10.4H47.9504Z" stroke="white" stroke-width="0.2" stroke-miterlimit="10"/>
<path d="M51.3025 10.4H50.6857V6.18955H49.3449V5.59995H52.6433V6.18955H51.3025V10.4Z" stroke="white" stroke-width="0.2" stroke-miterlimit="10"/>
<path d="M58.8872 9.77994C58.4152 10.2647 57.8288 10.5071 57.1272 10.5071C56.4256 10.5071 55.8392 10.2647 55.368 9.77994C54.896 9.29514 54.6608 8.70154 54.6608 7.99994C54.6608 7.29834 54.896 6.70474 55.368 6.21994C55.8392 5.73514 56.4256 5.49194 57.1272 5.49194C57.8248 5.49194 58.4104 5.73594 58.884 6.22314C59.3576 6.71034 59.5944 7.30234 59.5944 7.99994C59.5944 8.70154 59.3584 9.29514 58.8872 9.77994ZM55.8232 9.37754C56.1784 9.73754 56.6128 9.91674 57.1272 9.91674C57.6416 9.91674 58.0768 9.73674 58.4312 9.37754C58.7864 9.01754 58.9648 8.55834 58.9648 7.99994C58.9648 7.44154 58.7864 6.98234 58.4312 6.62234C58.0768 6.26234 57.6416 6.08314 57.1272 6.08314C56.6128 6.08314 56.1784 6.26314 55.8232 6.62234C55.4688 6.98234 55.2904 7.44154 55.2904 7.99994C55.2904 8.55834 55.4688 9.01754 55.8232 9.37754Z" stroke="white" stroke-width="0.2" stroke-miterlimit="10"/>
<path d="M60.46 10.4V5.59995H61.2104L63.5432 9.33355H63.5696L63.5432 8.40875V5.59995H64.16V10.4H63.516L61.0752 6.48475H61.0488L61.0752 7.40955V10.4H60.46Z" stroke="white" stroke-width="0.2" stroke-miterlimit="10"/>
<g filter="url(#filter0_ii)">
<path d="M8.34879 6.03045C8.11599 6.27685 7.97839 6.65925 7.97839 7.15445V24.8472C7.97839 25.3432 8.11599 25.7248 8.34879 25.9712L8.40799 26.0288L18.3192 16.1176V16.0008V15.884L8.40799 5.97205L8.34879 6.03045Z" fill="url(#paint0_linear)"/>
<path d="M21.6224 19.4225L18.3192 16.1177V16.0009V15.8841L21.6232 12.5801L21.6976 12.6225L25.612 14.8465C26.7296 15.4817 26.7296 16.5209 25.612 17.1569L21.6976 19.3809L21.6224 19.4225Z" fill="url(#paint1_linear)"/>
<g filter="url(#filter1_i)">
<path d="M21.6976 19.3801L18.3184 16.0009L8.34876 25.9713C8.71676 26.3617 9.32555 26.4097 10.0112 26.0209L21.6976 19.3801Z" fill="url(#paint2_linear)"/>
</g>
<path d="M21.6976 12.6216L10.0112 5.98163C9.32555 5.59203 8.71676 5.64083 8.34876 6.03123L18.3192 16.0016L21.6976 12.6216Z" fill="url(#paint3_linear)"/>
</g>
<path d="M5 1H103V-1H5V1ZM107 5V27H109V5H107ZM103 31H5V33H103V31ZM1 27V5H-1V27H1ZM5 31C2.79086 31 1 29.2091 1 27H-1C-1 30.3137 1.68629 33 5 33V31ZM107 27C107 29.2091 105.209 31 103 31V33C106.314 33 109 30.3137 109 27H107ZM103 1C105.209 1 107 2.79086 107 5H109C109 1.68629 106.314 -1 103 -1V1ZM5 -1C1.68629 -1 -1 1.68629 -1 5H1C1 2.79086 2.79086 1 5 1V-1Z" fill="#A6A6A6"/>
<defs>
<filter id="filter0_ii" x="7.97839" y="5.71277" width="18.4718" height="20.5766" filterUnits="userSpaceOnUse" color-interpolation-filters="sRGB">
<feFlood flood-opacity="0" result="BackgroundImageFix"/>
<feBlend mode="normal" in="SourceGraphic" in2="BackgroundImageFix" result="shape"/>
<feColorMatrix in="SourceAlpha" type="matrix" values="0 0 0 0 0 0 0 0 0 0 0 0 0 0 0 0 0 0 127 0" result="hardAlpha"/>
<feOffset dy="-0.15"/>
<feComposite in2="hardAlpha" operator="arithmetic" k2="-1" k3="1"/>
<feColorMatrix type="matrix" values="0 0 0 0 0 0 0 0 0 0 0 0 0 0 0 0 0 0 0.12 0"/>
<feBlend mode="normal" in2="shape" result="effect1_innerShadow"/>
<feColorMatrix in="SourceAlpha" type="matrix" values="0 0 0 0 0 0 0 0 0 0 0 0 0 0 0 0 0 0 127 0" result="hardAlpha"/>
<feOffset dy="0.15"/>
<feComposite in2="hardAlpha" operator="arithmetic" k2="-1" k3="1"/>
<feColorMatrix type="matrix" values="0 0 0 0 1 0 0 0 0 1 0 0 0 0 1 0 0 0 0.25 0"/>
<feBlend mode="normal" in2="effect1_innerShadow" result="effect2_innerShadow"/>
</filter>
<filter id="filter1_i" x="8.34875" y="16.0009" width="13.3488" height="10.2885" filterUnits="userSpaceOnUse" color-interpolation-filters="sRGB">
<feFlood flood-opacity="0" result="BackgroundImageFix"/>
<feBlend mode="normal" in="SourceGraphic" in2="BackgroundImageFix" result="shape"/>
<feColorMatrix in="SourceAlpha" type="matrix" values="0 0 0 0 0 0 0 0 0 0 0 0 0 0 0 0 0 0 127 0" result="hardAlpha"/>
<feOffset dy="-0.15"/>
<feComposite in2="hardAlpha" operator="arithmetic" k2="-1" k3="1"/>
<feColorMatrix type="matrix" values="0 0 0 0 0 0 0 0 0 0 0 0 0 0 0 0 0 0 0.08 0"/>
<feBlend mode="normal" in2="shape" result="effect1_innerShadow"/>
</filter>
<linearGradient id="paint0_linear" x1="17.4406" y1="6.96725" x2="4.01503" y2="20.3928" gradientUnits="userSpaceOnUse">
<stop stop-color="#00A0FF"/>
<stop offset="0.0066" stop-color="#00A1FF"/>
<stop offset="0.2601" stop-color="#00BEFF"/>
<stop offset="0.5122" stop-color="#00D2FF"/>
<stop offset="0.7604" stop-color="#00DFFF"/>
<stop offset="1" stop-color="#00E3FF"/>
</linearGradient>
<linearGradient id="paint1_linear" x1="27.0668" y1="16.0009" x2="7.7101" y2="16.0009" gradientUnits="userSpaceOnUse">
<stop stop-color="#FFE000"/>
<stop offset="0.4087" stop-color="#FFBD00"/>
<stop offset="0.7754" stop-color="#FFA500"/>
<stop offset="1" stop-color="#FF9C00"/>
</linearGradient>
<linearGradient id="paint2_linear" x1="19.8624" y1="17.836" x2="1.65564" y2="36.0428" gradientUnits="userSpaceOnUse">
<stop stop-color="#FF3A44"/>
<stop offset="1" stop-color="#C31162"/>
</linearGradient>
<linearGradient id="paint3_linear" x1="5.83787" y1="0.14147" x2="13.9677" y2="8.27131" gradientUnits="userSpaceOnUse">
<stop stop-color="#32A071"/>
<stop offset="0.0685" stop-color="#2DA771"/>
<stop offset="0.4762" stop-color="#15CF74"/>
<stop offset="0.8009" stop-color="#06E775"/>
<stop offset="1" stop-color="#00F076"/>
</linearGradient>
</defs>
</svg>
